<?xml version="1.0" encoding="utf-8"?>
<!-- Generator: Adobe Illustrator 24.0.0, SVG Export Plug-In . SVG Version: 6.00 Build 0)  -->
<svg version="1.1" id="Layer_1" xmlns="http://www.w3.org/2000/svg" xmlns:xlink="http://www.w3.org/1999/xlink" x="0px" y="0px"
	 viewBox="0 0 16 16" style="enable-background:new 0 0 16 16;" xml:space="preserve">
<style type="text/css">
	.st0{fill:#1C2C30;}
	.st1{fill:#334740;}
	.st2{fill:#608778;}
	.st3{fill:#8BCBB5;}
</style>
<g>
	<g>
		<path class="st0" d="M1.61,4.65h1.36V7.1h2.52V4.65h1.36v6.27H5.49V8.21H2.97v2.71H1.61V4.65z"/>
	</g>
</g>
<g>
	<g>
		<g>
			<path class="st1" d="M1.87,4.91h1.36v2.45h2.52V4.91H7.1v6.27H5.75V8.46H3.22v2.71H1.87V4.91z"/>
		</g>
	</g>
</g>
<g>
	<g>
		<g>
			<path class="st2" d="M2.1,5.15h1.36V7.6h2.52V5.15h1.36v6.27H5.98V8.71H3.46v2.71H2.1V5.15z"/>
		</g>
	</g>
</g>
<g>
	<g>
		<g>
			<path class="st0" d="M8.87,4.81h2.49c1.83,0,3.02,1.2,3.02,3.06c0,1.83-1.16,3.21-3.08,3.21H8.87V4.81z M10.22,9.99h1.02
				c1.2,0,1.73-0.89,1.73-2.12c0-1.02-0.5-1.96-1.73-1.96h-1.02V9.99z"/>
		</g>
	</g>
</g>
<g>
	<g>
		<g>
			<path class="st1" d="M9.11,5.06h2.49c1.83,0,3.02,1.2,3.02,3.06c0,1.83-1.16,3.21-3.08,3.21H9.11V5.06z M10.47,10.24h1.02
				c1.2,0,1.73-0.89,1.73-2.12c0-1.02-0.5-1.96-1.73-1.96h-1.02V10.24z"/>
		</g>
	</g>
</g>
<g>
	<g>
		<path class="st3" d="M2.33,5.41h1.36v2.45h2.52V5.41h1.36v6.27H6.21V8.97H3.69v2.71H2.33V5.41z"/>
	</g>
</g>
<g>
	<g>
		<g>
			<path class="st2" d="M9.32,5.29h2.49c1.83,0,3.02,1.2,3.02,3.06c0,1.83-1.16,3.21-3.08,3.21H9.32V5.29z M10.68,10.46h1.02
				c1.2,0,1.73-0.89,1.73-2.12c0-1.02-0.5-1.96-1.73-1.96h-1.02V10.46z"/>
		</g>
	</g>
</g>
<g>
	<g>
		<g>
			<path class="st3" d="M9.59,5.5h2.49c1.83,0,3.02,1.2,3.02,3.06c0,1.83-1.16,3.21-3.08,3.21H9.59V5.5z M10.94,10.67h1.02
				c1.2,0,1.73-0.89,1.73-2.12c0-1.02-0.5-1.96-1.73-1.96h-1.02V10.67z"/>
		</g>
	</g>
</g>
</svg>
